<!-- <?xml version="1.0" encoding="UTF-8" standalone="no"?> -->
<!-- Created with Inkscape (http://www.inkscape.org/) -->
<!--
<svg
xmlns:dc="http://purl.org/dc/elements/1.1/"
xmlns:cc="http://creativecommons.org/ns#"
xmlns:rdf="http://www.w3.org/1999/02/22-rdf-syntax-ns#"
xmlns:svg="http://www.w3.org/2000/svg"
xmlns="http://www.w3.org/2000/svg"
xmlns:sodipodi="http://sodipodi.sourceforge.net/DTD/sodipodi-0.dtd"
xmlns:inkscape="http://www.inkscape.org/namespaces/inkscape"
width="128.54926mm"
height="128.54977mm"
viewBox="0 0 128.54926 128.54977"
version="1.1"
id="svg4543"
inkscape:export-filename="/home/rknet/rkau2905/Bilder/favicon-32.png"
inkscape:export-xdpi="6.3228416"
inkscape:export-ydpi="6.3228416"
inkscape:version="0.92.4 (unknown)"
sodipodi:docname="geekdoc_invert.svg">
<defs
id="defs4537" />
<sodipodi:namedview
id="base"
pagecolor="#ffffff"
bordercolor="#666666"
borderopacity="1.0"
inkscape:pageopacity="0.0"
inkscape:pageshadow="2"
inkscape:zoom="1.1503906"
inkscape:cx="159.02327"
inkscape:cy="275.63348"
inkscape:document-units="mm"
inkscape:current-layer="g5186"
showgrid="false"
inkscape:window-width="1600"
inkscape:window-height="844"
inkscape:window-x="0"
inkscape:window-y="28"
inkscape:window-maximized="1" />
<metadata
id="metadata4540">
<rdf:RDF>
<cc:Work
rdf:about="">
<dc:format>image/svg+xml</dc:format>
<dc:type
rdf:resource="http://purl.org/dc/dcmitype/StillImage" />
<dc:title></dc:title>
</cc:Work>
</rdf:RDF>
</metadata>
<g
inkscape:label="Ebene 1"
inkscape:groupmode="layer"
id="layer1"
transform="translate(-39.442039,-40.637613)">
<g
inkscape:groupmode="layer"
id="layer2"
inkscape:label="Layer 1"
style="display:none">
<rect
style="fill:#666666;fill-opacity:1;stroke-width:0.27813107"
id="rect831"
width="142.59648"
height="143.05647"
x="36.912102"
y="37.170635" />
</g>
<g
id="g5186"
transform="translate(1.0583346,1.851866)">
<path
id="path5105"
d="M 388,146.5918 A 242.92773,242.92871 0 0 0 145.07227,389.51953 242.92773,242.92871 0 0 0 388,632.44922 242.92773,242.92871 0 0 0 630.92773,389.51953 242.92773,242.92871 0 0 0 388,146.5918 Z m 0,10 A 232.92773,232.92871 0 0 1 620.92773,389.51953 232.92773,232.92871 0 0 1 388,622.44922 232.92773,232.92871 0 0 1 155.07227,389.51953 232.92773,232.92871 0 0 1 388,156.5918 Z"
style="fill:#ffffff;fill-opacity:1;stroke-width:1.12989867"
inkscape:connector-curvature="0"
transform="scale(0.26458333)" />
<path
style="fill:#ffffff;fill-opacity:1;stroke-width:0.29306456"
d="m 102.65833,40.051097 a 63.008755,63.00902 0 0 0 -63.008753,63.009283 63.008755,63.00902 0 0 0 63.008753,63.00876 63.008755,63.00902 0 0 0 63.00876,-63.00876 63.008755,63.00902 0 0 0 -63.00876,-63.009283 z m -39.513148,32.79431 h 79.026298 a 4.3907643,6.0435574 0 1 1 0,12.086202 H 63.145182 a 4.3907643,6.0435574 0 1 1 0,-12.086202 z m 0,24.171874 h 79.026298 a 4.3907643,6.0435574 0 1 1 0,12.086199 H 63.145182 a 4.3907643,6.0435574 0 1 1 0,-12.086199 z m -0.594905,24.171869 h 53.247233 a 3.8037628,6.0435574 0 1 1 0,12.08621 H 62.550277 a 3.8037628,6.0435574 0 1 1 0,-12.08621 z"
id="ellipse5130"
inkscape:connector-curvature="0" />
</g>
</g>
</svg>
-->
<?xml version="1.0" encoding="iso-8859-1"?>
<svg version="1.1" id="Layer_1" xmlns="http://www.w3.org/2000/svg" xmlns:xlink="http://www.w3.org/1999/xlink" x="0px" y="0px" viewBox="0 0 512 512" style="enable-background:new 0 0 512 512;" xml:space="preserve">
	<path style="fill:#FF4328;" d="M154.015,406.588h69.398v96.807l-34.685-15.408l-34.713,15.408V406.588L154.015,406.588z" />
	<path style="fill:#391B10;" d="M140.37,426.459H65.076c-5.941,0-10.756-4.816-10.756-10.756V19.361
	c0-5.941,4.816-10.756,10.756-10.756h75.294c5.941,0,10.756,4.816,10.756,10.756v396.342
	C151.126,421.644,146.31,426.459,140.37,426.459z" />
	<path style="fill:#874328;" d="M107.829,8.605h339.096c5.941,0,10.756,4.816,10.756,10.756v396.342
	c0,5.941-4.816,10.756-10.756,10.756H107.829V8.605L107.829,8.605z" />
	<path style="fill:#CAEEC5;" d="M242.18,167.454c3.481-15.416,17.317-26.934,33.853-26.934c16.538,0,30.378,11.518,33.853,26.934
	c5.41-3.468,11.852-5.482,18.768-5.482c19.162,0,34.699,15.462,34.699,34.535c0,19.072-15.536,34.535-34.699,34.535
	c-5.354,0-10.431-1.21-14.959-3.369v66.871h-75.32v-66.871c-4.529,2.159-9.603,3.369-14.964,3.369
	c-19.162,0-34.699-15.463-34.699-34.535c0-19.073,15.536-34.535,34.699-34.535C230.325,161.972,236.77,163.986,242.18,167.454
	L242.18,167.454z" />
	<path style="fill:#97BAA8;" d="M313.697,228.499v43.229v22.816h-75.32V280.58v-52.081v-1.036h75.32V228.499z" />
	<path d="M446.924,0H140.37h-32.541H65.076C54.4,0,45.714,8.686,45.714,19.361v396.342c0,10.677,8.686,19.361,19.361,19.361h42.753
	h32.541h5.04v68.331c0,2.912,1.473,5.627,3.914,7.214c1.418,0.922,3.05,1.391,4.691,1.391c1.185,0,2.374-0.245,3.49-0.741
	l31.22-13.858l31.192,13.857c2.662,1.183,5.741,0.939,8.183-0.648c2.443-1.589,3.915-4.303,3.915-7.215v-68.331h214.908
	c10.676,0,19.361-8.685,19.361-19.361V19.361C466.286,8.686,457.6,0,446.924,0z M62.924,415.703V19.361
	c0-1.186,0.965-2.151,2.151-2.151h34.148v400.644H65.076C63.889,417.854,62.924,416.888,62.924,415.703z M214.809,490.156
	l-22.586-10.033c-2.223-0.988-4.761-0.99-6.985-0.001l-22.616,10.039v-55.097h52.187V490.156z M449.076,415.703
	c0,1.186-0.965,2.151-2.151,2.151H116.434V17.21h330.491c1.186,0,2.151,0.965,2.151,2.151V415.703z M328.656,153.367
	c-4.784,0-9.491,0.781-13.954,2.293c-7.248-14.205-22.176-23.743-38.667-23.743c-16.789,0-31.528,9.37-38.713,23.728
	c-4.449-1.502-9.14-2.277-13.908-2.277c-23.878,0-43.304,19.353-43.304,43.14c0,23.788,19.426,43.14,43.304,43.14
	c2.148,0,4.27-0.154,6.359-0.458v55.354c0,4.752,3.853,8.605,8.605,8.605h75.32c4.752,0,8.605-3.853,8.605-8.605V239.19
	c2.087,0.304,4.207,0.458,6.354,0.458c23.878,0,43.304-19.353,43.304-43.14C371.959,172.719,352.534,153.367,328.656,153.367z
	 M328.656,222.438c-3.947,0-7.733-0.852-11.254-2.531c-2.665-1.271-5.798-1.086-8.295,0.489c-2.499,1.577-4.013,4.324-4.013,7.278
	v58.265h-58.11v-58.265c0-2.954-1.514-5.701-4.012-7.278c-2.498-1.575-5.629-1.762-8.295-0.49c-3.525,1.68-7.313,2.532-11.262,2.532
	c-14.388,0-26.094-11.632-26.094-25.93c0-14.298,11.706-25.93,26.094-25.93c5.033,0,9.916,1.425,14.123,4.123
	c2.361,1.513,5.314,1.778,7.91,0.716c2.595-1.065,4.509-3.329,5.128-6.067c2.646-11.719,13.353-20.224,25.459-20.224
	c12.111,0,22.818,8.504,25.459,20.222c0.617,2.737,2.531,5.002,5.128,6.069c2.597,1.064,5.549,0.797,7.912-0.717
	c4.207-2.697,9.09-4.122,14.123-4.122c14.388,0,26.094,11.633,26.094,25.93C354.749,210.805,343.043,222.438,328.656,222.438z" />
	<g>
	</g>
	<g>
	</g>
	<g>
	</g>
	<g>
	</g>
	<g>
	</g>
	<g>
	</g>
	<g>
	</g>
	<g>
	</g>
	<g>
	</g>
	<g>
	</g>
	<g>
	</g>
	<g>
	</g>
	<g>
	</g>
	<g>
	</g>
	<g>
	</g>
</svg>
